<?xml version="1.0" encoding="UTF-8" standalone="no"?>
<svg
   xmlns:dc="http://purl.org/dc/elements/1.1/"
   xmlns:cc="http://creativecommons.org/ns#"
   xmlns:rdf="http://www.w3.org/1999/02/22-rdf-syntax-ns#"
   xmlns:svg="http://www.w3.org/2000/svg"
   xmlns="http://www.w3.org/2000/svg"
   viewBox="0 0 332 332"
   height="332"
   width="332"
   xml:space="preserve"
   id="svg2"
   version="1.1"><metadata
     id="metadata8"><rdf:RDF><cc:Work
         rdf:about=""><dc:format>image/svg+xml</dc:format><dc:type
           rdf:resource="http://purl.org/dc/dcmitype/StillImage" /></cc:Work></rdf:RDF></metadata><defs
     id="defs6" /><g
     transform="matrix(1.3333333,0,0,-1.3333333,0,332)"
     id="g10"><g
       transform="scale(0.1)"
       id="g12"><path
         id="path14"
         style="fill:#1e2e00;fill-opacity:1;fill-rule:nonzero;stroke:none"
         d="m 455.75,784.051 -0.059,908.059 786.539,-454.03 0.02,-302.689 -524.359,302.689 0.039,-605.369 -262.18,151.34" /><path
         id="path16"
         style="fill:#bfccbd;fill-opacity:1;fill-rule:nonzero;stroke:none"
         d="m 1242.23,1238.08 786.47,454.03 0.07,-908.059 -262.16,-151.34 -0.05,605.369 -524.31,-302.689 -0.02,302.689" /><path
         id="path18"
         style="fill:#1e2e00;fill-opacity:1;fill-rule:nonzero;stroke:none"
         d="m 980.109,481.359 -0.019,302.692 262.18,-151.34 0.02,-302.691 -262.181,151.339" /><path
         id="path20"
         style="fill:#bfccbd;fill-opacity:1;fill-rule:nonzero;stroke:none"
         d="m 1242.27,632.711 262.16,151.34 0.02,-302.692 -262.16,-151.339 -0.02,302.691" /><path
         id="path22"
         style="fill:#bfccbd;fill-opacity:1;fill-rule:nonzero;stroke:none"
         d="m 1242.15,2286.68 c -579.091,-0.04 -1048.521,-469.5 -1048.521,-1048.6 0,-191.02 51.07,-370.1 140.312,-524.35 l 121.809,70.321 -0.059,908.059 786.469,454.04 -0.01,140.53" /><path
         id="path24"
         style="fill:#e5eadc;fill-opacity:1;fill-rule:evenodd;stroke:none"
         d="M 455.75,784.051 333.941,713.73 c 181.321,-313.402 520.18,-524.25 908.289,-524.25 388.12,0 726.99,210.86 908.3,524.282 L 2028.77,784.051 1242.29,330.02 455.75,784.051" /><path
         id="path26"
         style="fill:#1e2e00;fill-opacity:1;fill-rule:nonzero;stroke:none"
         d="m 2028.77,784.051 121.76,-70.289 c 89.23,154.238 140.3,333.318 140.3,524.318 0,579.13 -469.47,1048.6 -1048.68,1048.6 l 0.01,-140.53 786.54,-454.04 0.07,-908.059" /><path
         id="path28"
         style="fill:#e5eadc;fill-opacity:1;fill-rule:evenodd;stroke:none"
         d="m 1242.16,2146.15 -786.469,-454.04 786.539,-454.03 786.47,454.03 -786.54,454.04" /><path
         id="path30"
         style="fill:#000000;fill-opacity:1;fill-rule:nonzero;stroke:none"
         d="m 184.461,1029.07 c -0.231,0.74 -0.449,1.47 -0.68,2.21 l 1.84,0.56 c 1.539,-3.28 2.957,-7.02 4.25,-11.25 1.301,-4.22 1.981,-9.7 2.039,-16.44 0.059,-6.752 -1.648,-13.4 -5.129,-19.951 -7.121,-13.437 -18.551,-23.769 -34.269,-31 L 74.2695,916.93 172.25,905.23 c 8.52,-1.14 15.398,-1.3 20.641,-0.5 l 0.558,-1.832 -88.75,-79.25 93.711,19.911 c 2.149,0.402 3.789,1.601 4.91,3.621 1.121,2.019 1.399,3.949 0.84,5.781 l -0.898,2.937 1.648,0.5 10.93,-35.597 -1.84,-0.571 -0.898,2.942 c -1.012,3.297 -2.911,5.898 -5.704,7.789 -2.789,1.891 -5.929,2.629 -9.418,2.23 L 94.2109,814 C 76.3398,796.73 69.7188,780.57 74.3398,765.52 c 0.4102,-1.34 0.9102,-2.731 1.4805,-4.161 l -1.8398,-0.57 c -1.8711,3.051 -3.1211,5.609 -3.7617,7.691 -0.6407,2.079 -1.2383,4.372 -1.8086,6.872 -0.5704,2.507 -0.8711,5.558 -0.8985,9.16 -0.0429,3.609 0.4375,7.168 1.4375,10.687 0.9922,3.52 2.1602,6.692 3.5117,9.512 1.3399,2.82 2.9297,5.59 4.7774,8.301 3.3906,4.648 6.8125,8.578 10.2422,11.777 l 82.2385,73.641 -125.8284,15.41 -0.5117,1.648 103.4301,50.41 c 16.339,7.832 27.613,17.352 33.812,28.563 6.199,11.209 7.481,22.739 3.84,34.609" /><path
         id="path32"
         style="fill:#000000;fill-opacity:1;fill-rule:nonzero;stroke:none"
         d="m 135.16,1210.75 -0.129,1.53 1.91,0.16 3.7,-43.04 -1.911,-0.16 -0.152,1.72 c -0.226,2.68 -1.258,4.61 -3.098,5.8 -1.839,1.19 -3.519,1.72 -5.05,1.59 -1.532,-0.13 -3.039,-0.52 -4.532,-1.16 l -31.4566,-15.04 4.4375,-51.65 33.8121,-10 c 1.571,-0.38 3.09,-0.5 4.559,-0.38 1.469,0.13 3,0.93 4.609,2.42 1.61,1.49 2.301,3.57 2.071,6.25 l -0.149,1.72 1.91,0.17 3.309,-38.46 -1.922,-0.16 -0.148,1.72 c -0.27,3.19 -1.559,6.23 -3.86,9.11 -2.308,2.89 -5.519,5.12 -9.629,6.69 l -106.6402,34.38 c -10.7305,3.84 -17.50002,5.63 -20.31252,5.39 l -0.14844,1.72 118.21916,61.81 c 3.8,2.12 6.582,4.8 8.363,8.04 1.777,3.24 2.519,6.51 2.238,9.83 z m -42.2186,-98.44 -4.0508,47.06 -59.4297,-28.24 z" /><path
         id="path34"
         style="fill:#000000;fill-opacity:1;fill-rule:nonzero;stroke:none"
         d="m 16.4219,1362.05 -1.4336,-12.2 113.6597,-13.31 c 3.301,-0.38 6.274,0.46 8.903,2.54 2.621,2.08 4.14,4.83 4.539,8.26 l 0.269,2.29 1.93,-0.03 -4.891,-41.76 -1.91,0.22 0.293,2.48 c 0.391,3.3 -0.422,6.27 -2.441,8.89 -2.012,2.61 -4.66,4.18 -7.949,4.7 l -105.8402,12.38 c -3.3203,0.26 -6.2891,-0.65 -8.9219,-2.72 -2.6289,-2.08 -4.14062,-4.77 -4.51952,-8.07 l -0.28907,-2.48 -1.91015,0.22 6.03124,51.49 c 1.3477,11.57 5.6172,20.28 12.8203,26.14 7.1875,5.86 15.9102,8.19 26.1367,6.99 10.2305,-1.2 18.7032,-5.38 25.4024,-12.54 6.6992,-7.16 9.5273,-15.26 8.4687,-24.28 1.1094,1.8 3.1211,3.85 6.0391,6.15 2.9102,2.3 5.8828,4.31 8.9102,6.01 16.9222,9.11 27.3902,15.1 31.4022,17.98 4.008,2.88 6.758,4.94 8.258,6.19 1.5,1.24 2.98,2.61 4.441,4.12 1.469,1.5 2.68,3.03 3.629,4.6 2.223,3.47 3.571,7.31 4.063,11.51 l 1.91,-0.23 -1.231,-10.48 c -0.64,-5.47 -2.222,-10.44 -4.742,-14.91 -2.519,-4.48 -4.969,-7.77 -7.34,-9.87 -2.379,-2.11 -4.648,-3.91 -6.82,-5.39 -2.168,-1.49 -9.309,-5.45 -21.398,-11.9 -12.1019,-6.44 -19.0121,-10.21 -20.7504,-11.3 -1.7422,-1.08 -3.4492,-2.23 -5.1406,-3.45 -4.8008,-3.57 -7.4414,-7.38 -7.9102,-11.45 l -1.9101,0.22 c 0.2422,1.01 0.4609,2.33 0.6601,3.99 0.1915,1.65 0.3711,3.69 0.5196,6.12 1.4687,15.81 -3.9805,26.5 -16.3477,32.07 -2.4531,1.06 -4.7929,1.72 -7.0234,1.98 -2.2188,0.26 -3.6485,0.43 -4.2891,0.5 -8.539,0.75 -15.6679,-0.67 -21.3711,-4.26 -5.707,-3.58 -9.1679,-8.91 -10.3789,-15.99 -0.4883,-3.04 -1,-6.84 -1.5273,-11.42" /><path
         id="path36"
         style="fill:#000000;fill-opacity:1;fill-rule:nonzero;stroke:none"
         d="m 184.129,1559.1 0.762,2.38 1.828,-0.59 -12.879,-40.02 -1.828,0.58 0.758,2.38 c 1.019,3.17 0.769,6.24 -0.758,9.22 -1.532,2.98 -3.864,5.04 -6.981,6.18 l -101.4412,32.65 c -3.2109,0.9 -6.2695,0.57 -9.1914,-0.98 -2.9179,-1.55 -4.8867,-3.9 -5.9101,-7.07 l -0.7578,-2.38 -1.8321,0.59 12.8829,40.03 1.8281,-0.59 -0.7578,-2.38 c -1.0235,-3.16 -0.8008,-6.23 0.6679,-9.19 1.4688,-2.96 3.7618,-5.01 6.8907,-6.15 l 101.4418,-32.65 c 3.168,-1.02 6.25,-0.73 9.25,0.86 3,1.59 5.007,3.97 6.027,7.13 z m 25.473,72.89 -2.532,-7.86 c -4,-12.43 -10.41,-20.45 -19.242,-24.06 l -67.359,-26.93 -40.219,60.54 c -0.8984,1.37 -1.8398,2.21 -2.8203,2.52 -0.9688,0.32 -1.8789,0.41 -2.7305,0.28 -2.1406,-0.39 -3.6289,-1.86 -4.4492,-4.42 l -0.5898,-1.83 -1.6407,0.53 12.4102,38.57 1.6406,-0.53 -0.2305,-0.73 C 79.25,1660.02 80,1652.52 84.0781,1645.56 l 35.8909,-58.95 74.722,31.02 c 6.438,3.3 10.797,8.29 13.079,14.95 l 1.832,-0.59" /><path
         id="path38"
         style="fill:#000000;fill-opacity:1;fill-rule:nonzero;stroke:none"
         d="m 175.441,1867.07 18.7,33.76 1.679,-0.93 -0.84,-1.51 c -1.55,-2.8 -2.199,-6.03 -1.949,-9.68 0.25,-3.65 1.668,-7.21 4.27,-10.7 l 68.121,-90.62 c 6.769,-9.17 11.387,-14.43 13.848,-15.8 l -0.829,-1.51 -133.812,12.43 c -4.449,0.42 -8.301,-0.27 -11.551,-2.05 -3.258,-1.78 -5.656,-4.07 -7.207,-6.87 l -0.75,-1.34 -1.68,0.93 20.93,37.79 1.68,-0.93 -0.832,-1.51 c -1.309,-2.36 -1.528,-4.54 -0.668,-6.55 0.859,-2.01 1.937,-3.38 3.23,-4.09 1.278,-0.71 2.75,-1.16 4.41,-1.35 l 107.45,-13.64 -67.731,85.36 c -1.101,1.2 -2.289,2.15 -3.582,2.86 -1.277,0.71 -3.008,0.9 -5.168,0.56 -2.16,-0.34 -3.898,-1.68 -5.199,-4.03 l -0.84,-1.51 -1.68,0.93" /><path
         id="path40"
         style="fill:#000000;fill-opacity:1;fill-rule:nonzero;stroke:none"
         d="m 368.52,1915.38 c 2.089,2.59 2.949,5.55 2.582,8.88 -0.364,3.33 -1.801,6.09 -4.313,8.27 l -83.07,66.74 c -2.68,1.99 -5.649,2.78 -8.93,2.37 -3.277,-0.4 -5.961,-1.9 -8.051,-4.49 l -1.558,-1.95 -1.5,1.21 26.34,32.77 1.492,-1.2 -1.563,-1.94 c -2.078,-2.6 -2.969,-5.54 -2.66,-8.83 0.32,-3.29 1.731,-6.02 4.242,-8.21 l 83.078,-66.74 c 2.59,-2.08 5.571,-2.92 8.942,-2.51 3.371,0.42 6.097,1.92 8.179,4.51 l 1.559,1.95 1.5,-1.2 -26.328,-32.78 -1.5,1.2 1.559,1.95" /><path
         id="path42"
         style="fill:#000000;fill-opacity:1;fill-rule:nonzero;stroke:none"
         d="m 468.281,2028.31 c 2.457,2.24 3.778,5.03 3.938,8.37 0.16,3.35 -0.821,6.3 -2.957,8.85 l -71.453,78.8 c -2.329,2.38 -5.168,3.65 -8.508,3.81 -3.352,0.17 -6.25,-0.87 -8.723,-3.1 l -1.848,-1.68 -1.289,1.42 31.149,28.25 1.289,-1.43 -1.848,-1.67 c -3.41,-3.1 -4.679,-6.93 -3.82,-11.51 0.437,-2.19 1.379,-4.1 2.848,-5.71 l 76.863,-84.77 20.34,18.44 c 7.019,6.36 10.949,12.78 11.816,19.27 0.863,6.48 -0.269,13.92 -3.398,22.32 l 1.429,1.29 12.641,-30.53 -59.031,-53.52 -1.289,1.43 1.851,1.67" /><path
         id="path44"
         style="fill:#000000;fill-opacity:1;fill-rule:nonzero;stroke:none"
         d="m 618.02,2151.35 c 2.82,1.78 4.601,4.3 5.339,7.56 0.743,3.27 0.282,6.34 -1.379,9.23 l -56.66,90.02 c -1.879,2.75 -4.449,4.5 -7.718,5.24 -3.262,0.74 -6.301,0.23 -9.122,-1.55 l -2.109,-1.32 -1.019,1.62 35.578,22.4 1.031,-1.63 -2.121,-1.33 c -3.899,-2.45 -5.82,-6.01 -5.762,-10.66 0.043,-2.24 0.652,-4.28 1.813,-6.12 l 60.937,-96.85 23.242,14.62 c 8.02,5.05 13.008,10.69 14.989,16.92 1.972,6.24 2.16,13.76 0.543,22.57 l 1.628,1.03 7.141,-32.26 -67.441,-42.44 -1.02,1.63 2.11,1.32" /><path
         id="path46"
         style="fill:#000000;fill-opacity:1;fill-rule:nonzero;stroke:none"
         d="m 786.922,2246.43 c 3.078,1.25 5.269,3.42 6.578,6.51 1.301,3.08 1.379,6.19 0.25,9.32 l -40.449,99.63 c -1.153,2.84 -3.25,4.79 -6.301,5.83 -3.051,1.04 -6.121,0.93 -9.199,-0.32 l -2.129,-0.86 -0.902,1.7 52.121,21.17 c 3.679,1.49 7.531,3.47 11.57,5.94 4.039,2.47 6.809,4.42 8.301,5.85 l 9.097,-22.41 -1.781,-0.72 -1.297,3.2 c -1.16,2.84 -3.121,4.88 -5.902,6.1 -2.77,1.22 -5.551,1.34 -8.32,0.35 l -36.289,-14.74 22.308,-54.97 30.07,12.21 c 2.321,1.08 3.981,2.79 4.961,5.13 0.993,2.33 0.981,4.74 -0.031,7.23 l -1.008,2.49 1.77,0.73 11.422,-28.11 -1.782,-0.72 -1.089,2.66 c -0.961,2.38 -2.582,4.07 -4.852,5.08 -2.277,1.01 -4.629,1.09 -7.051,0.25 l -30.238,-12.28 21.602,-53.19 25.437,10.33 c 8.77,3.56 14.68,8.24 17.723,14.03 3.027,5.79 4.527,13.17 4.476,22.13 l 1.782,0.72 1.378,-33.01 -73.82,-29.97 -0.726,1.77 2.32,0.94" /><path
         id="path48"
         style="fill:#000000;fill-opacity:1;fill-rule:nonzero;stroke:none"
         d="m 1302.63,2314.29 c 0.77,0.04 1.54,0.07 2.31,0.11 l 0.09,-1.92 c -3.56,-0.68 -7.55,-1.12 -11.96,-1.32 -4.41,-0.21 -9.89,0.5 -16.43,2.12 -6.55,1.62 -12.56,4.93 -18.05,9.93 -11.23,10.25 -18.4,23.88 -21.49,40.91 l -15.65,84.81 -35.72,-91.99 c -3.22,-7.97 -5.1,-14.59 -5.62,-19.87 l -1.92,-0.08 -54.66,105.68 -4.04,-95.71 c -0.15,-2.19 0.61,-4.07 2.28,-5.66 1.68,-1.59 3.47,-2.34 5.39,-2.25 l 3.07,0.14 0.08,-1.73 -37.21,-1.72 -0.09,1.92 3.07,0.14 c 3.45,0.16 6.44,1.36 8.97,3.59 2.52,2.23 4.02,5.09 4.5,8.57 l 7.24,105.28 c -12.27,21.6 -26.27,32.03 -42,31.31 -1.4,-0.07 -2.87,-0.2 -4.4,-0.4 l -0.09,1.92 c 3.41,1.05 6.2,1.63 8.38,1.73 2.17,0.1 4.54,0.12 7.11,0.04 2.56,-0.07 5.6,-0.54 9.1,-1.4 3.5,-0.87 6.83,-2.22 9.99,-4.06 3.16,-1.84 5.94,-3.76 8.34,-5.76 2.39,-2.01 4.68,-4.24 6.84,-6.7 3.66,-4.45 6.62,-8.73 8.86,-12.85 l 50.85,-97.99 46.25,118.04 1.72,0.08 23.09,-112.72 c 3.51,-17.77 9.92,-31.06 19.23,-39.86 9.31,-8.79 20.17,-12.9 32.57,-12.33" /><path
         id="path50"
         style="fill:#000000;fill-opacity:1;fill-rule:nonzero;stroke:none"
         d="m 1490.9,2317.47 1.52,-0.25 -0.31,-1.89 -42.63,7.01 0.31,1.9 1.71,-0.28 c 2.65,-0.44 4.78,0.09 6.39,1.57 1.6,1.49 2.53,2.99 2.78,4.51 0.25,1.51 0.25,3.07 -0.01,4.67 l -6.83,34.2 -51.15,8.41 -18.02,-30.3 c -0.76,-1.44 -1.25,-2.88 -1.49,-4.33 -0.24,-1.45 0.16,-3.14 1.21,-5.06 1.04,-1.93 2.89,-3.11 5.55,-3.54 l 1.7,-0.28 -0.31,-1.9 -38.08,6.27 0.31,1.89 1.71,-0.28 c 3.15,-0.52 6.41,-0.02 9.78,1.5 3.36,1.53 6.31,4.09 8.85,7.69 l 59.59,94.88 c 6.35,9.47 9.76,15.59 10.22,18.37 l 1.7,-0.29 30.8,-129.79 c 1.12,-4.2 3.03,-7.57 5.73,-10.09 2.7,-2.52 5.69,-4.05 8.97,-4.59 z m -85.01,65.16 46.61,-7.66 -12.73,64.55 z" /><path
         id="path52"
         style="fill:#000000;fill-opacity:1;fill-rule:nonzero;stroke:none"
         d="m 1719.84,2363.03 c 1.07,2.88 0.98,5.75 -0.27,8.61 -1.25,2.86 -3.24,4.86 -5.95,6.01 l -34.17,12.77 -40.27,-107.72 c -1.04,-3.17 -0.86,-6.24 0.55,-9.23 1.41,-2.99 3.68,-5.06 6.79,-6.23 l 2.34,-0.87 -0.67,-1.8 -39.39,14.72 0.68,1.8 2.33,-0.87 c 3.12,-1.17 6.19,-1.09 9.22,0.24 3.02,1.33 5.15,3.47 6.39,6.43 l 40.34,107.9 -34.17,12.78 c -2.92,0.95 -5.77,0.75 -8.53,-0.61 -2.76,-1.36 -4.68,-3.48 -5.76,-6.35 l -1.14,-3.06 -1.87,0.49 8.47,22.66 c 1.53,-1.39 4.38,-3.27 8.55,-5.65 4.17,-2.38 8.11,-4.26 11.83,-5.65 l 60.78,-22.72 c 5.88,-2.2 10.93,-3.58 15.17,-4.13 4.23,-0.56 6.83,-0.82 7.81,-0.77 l -8.47,-22.66 -1.74,0.85 1.15,3.06" /><path
         id="path54"
         style="fill:#000000;fill-opacity:1;fill-rule:nonzero;stroke:none"
         d="m 1852.08,2160.42 c 2.82,-1.77 5.86,-2.29 9.13,-1.54 3.26,0.75 5.8,2.44 7.61,5.08 l 26.45,42.11 -66.5,41.77 -26.45,-42.11 c -1.77,-2.82 -2.24,-5.85 -1.4,-9.1 0.83,-3.24 2.66,-5.75 5.47,-7.52 l 2.12,-1.33 -1.02,-1.62 -35.61,22.36 1.02,1.62 2.11,-1.32 c 2.82,-1.77 5.85,-2.31 9.08,-1.62 3.23,0.69 5.78,2.41 7.66,5.16 l 56.77,90.41 c 1.67,2.88 2.11,5.93 1.33,9.14 -0.78,3.21 -2.58,5.7 -5.4,7.47 l -2.11,1.33 1.02,1.63 35.6,-22.37 -1.02,-1.62 -2.11,1.32 c -2.82,1.77 -5.84,2.31 -9.07,1.62 -3.23,-0.69 -5.79,-2.41 -7.67,-5.16 l -27.26,-43.41 66.5,-41.77 27.26,43.42 c 2.35,3.97 2.45,7.98 0.32,12.04 -1.09,1.89 -2.55,3.41 -4.39,4.57 l -2.11,1.33 1.02,1.63 35.61,-22.37 -1.03,-1.62 -2.11,1.32 c -2.82,1.77 -5.86,2.29 -9.12,1.54 -3.27,-0.75 -5.84,-2.49 -7.72,-5.24 l -56.67,-90.24 c -1.66,-2.89 -2.1,-5.94 -1.32,-9.15 0.78,-3.21 2.58,-5.7 5.4,-7.47 l 2.11,-1.33 -1.02,-1.62 -35.61,22.36 1.02,1.62 2.11,-1.32" /><path
         id="path56"
         style="fill:#000000;fill-opacity:1;fill-rule:nonzero;stroke:none"
         d="m 1972.56,2068.81 c 2.42,-2.29 5.29,-3.4 8.64,-3.31 3.35,0.08 6.22,1.28 8.6,3.61 l 74.09,77.92 c 2.11,2.23 3.02,4.95 2.71,8.15 -0.31,3.21 -1.67,5.96 -4.08,8.25 l -1.67,1.59 1.19,1.52 40.77,-38.76 c 2.87,-2.73 6.27,-5.43 10.18,-8.09 3.92,-2.67 6.84,-4.38 8.76,-5.15 l -16.67,-17.53 -1.39,1.32 2.38,2.51 c 2.11,2.22 3.16,4.85 3.13,7.89 -0.04,3.03 -1.07,5.6 -3.12,7.73 l -28.39,26.98 -40.87,-42.99 23.51,-22.36 c 1.95,-1.67 4.18,-2.48 6.72,-2.41 2.53,0.06 4.72,1.07 6.58,3.02 l 1.85,1.94 1.39,-1.32 -20.9,-21.98 -1.39,1.32 1.98,2.09 c 1.76,1.85 2.64,4.02 2.62,6.51 -0.02,2.49 -0.91,4.66 -2.68,6.52 l -23.65,22.49 -39.56,-41.6 19.9,-18.92 c 6.86,-6.53 13.56,-9.98 20.09,-10.36 6.53,-0.38 13.86,1.3 22.01,5.04 l 1.39,-1.32 -29.5,-14.87 -57.75,54.9 1.32,1.39 1.81,-1.72" /><path
         id="path58"
         style="fill:#000000;fill-opacity:1;fill-rule:nonzero;stroke:none"
         d="m 2199.97,1796.39 1.75,-2.53 -1.58,-1.09 -23.66,34.29 1.42,0.98 1.63,-2.37 c 1.24,-1.79 2.98,-2.84 5.22,-3.16 2.24,-0.32 4.19,0.24 5.83,1.69 l 74.58,61.96 -96.7,-17.74 c -8.46,-1.48 -15.07,-3.4 -19.82,-5.75 l -1.09,1.58 59.79,100.98 -81.97,-46.53 c -1.83,-0.95 -3.02,-2.55 -3.57,-4.8 -0.55,-2.24 -0.2,-4.26 1.03,-6.05 l 1.64,-2.37 -1.43,-0.98 -21.15,30.66 1.58,1.09 1.75,-2.53 c 2.03,-2.95 4.69,-4.89 7.97,-5.81 3.28,-0.93 6.6,-0.55 9.94,1.14 l 109.48,58.04 1.09,-1.58 -64.87,-109.84 125.06,22.61 0.98,-1.42 -92.9,-82.07 c -2.77,-2.53 -4.28,-5.51 -4.54,-8.96 -0.27,-3.45 0.58,-6.6 2.54,-9.44" /><path
         id="path60"
         style="fill:#000000;fill-opacity:1;fill-rule:nonzero;stroke:none"
         d="m 2293.82,1586.25 0.57,-1.42 -1.78,-0.72 -16.11,40.08 1.78,0.72 0.64,-1.61 c 1.01,-2.49 2.56,-4.04 4.66,-4.64 2.11,-0.6 3.87,-0.62 5.3,-0.04 1.42,0.57 2.75,1.38 3.99,2.43 l 25.7,23.57 -19.34,48.1 -35.26,-0.31 c -1.61,-0.1 -3.1,-0.42 -4.47,-0.97 -1.37,-0.55 -2.6,-1.77 -3.7,-3.66 -1.1,-1.89 -1.15,-4.08 -0.15,-6.58 l 0.64,-1.6 -1.78,-0.72 -14.39,35.81 1.78,0.72 0.64,-1.61 c 1.2,-2.97 3.32,-5.49 6.36,-7.58 3.05,-2.09 6.77,-3.28 11.17,-3.58 l 112.03,-1.74 c 11.38,-0.52 18.38,-0.26 20.99,0.79 l 0.65,-1.6 -95,-93.65 c -3.01,-3.14 -4.9,-6.52 -5.65,-10.14 -0.76,-3.61 -0.51,-6.96 0.73,-10.05 z m 11.62,106.48 17.61,-43.82 48.6,44.36 z" /><path
         id="path62"
         style="fill:#000000;fill-opacity:1;fill-rule:nonzero;stroke:none"
         d="m 2451.48,1414.12 c 3.01,0.57 5.42,2.14 7.22,4.69 1.79,2.56 2.48,5.29 2.05,8.21 l -6.8,35.84 -112.99,-21.44 c -3.24,-0.74 -5.78,-2.49 -7.6,-5.25 -1.82,-2.76 -2.42,-5.77 -1.8,-9.04 l 0.46,-2.45 -1.88,-0.36 -7.84,41.31 1.89,0.36 0.46,-2.45 c 0.62,-3.27 2.28,-5.86 4.99,-7.75 2.7,-1.9 5.64,-2.61 8.81,-2.14 l 113.18,21.47 -6.8,35.84 c -0.7,3 -2.35,5.32 -4.94,6.98 -2.59,1.66 -5.4,2.2 -8.42,1.63 l -3.21,-0.61 -0.54,1.85 23.77,4.51 c -0.4,-2.03 -0.54,-5.44 -0.41,-10.24 0.13,-4.8 0.57,-9.14 1.3,-13.04 l 12.1,-63.76 c 1.17,-6.16 2.61,-11.2 4.33,-15.11 1.72,-3.9 2.85,-6.26 3.4,-7.07 l -23.77,-4.51 -0.17,1.92 3.21,0.61" /><path
         id="path64"
         style="fill:#000000;fill-opacity:1;fill-rule:nonzero;stroke:none"
         d="m 2346.58,1287.44 c 0.09,-3.32 1.35,-6.14 3.78,-8.44 2.43,-2.3 5.31,-3.47 8.64,-3.51 l 106.52,2.92 c 3.33,0.22 6.11,1.54 8.35,3.97 2.23,2.43 3.31,5.31 3.22,8.64 l -0.07,2.49 1.92,0.06 1.15,-42.04 -1.92,-0.05 -0.07,2.5 c -0.09,3.32 -1.32,6.14 -3.69,8.44 -2.37,2.31 -5.21,3.48 -8.54,3.51 l -106.52,-2.91 c -3.33,-0.1 -6.14,-1.39 -8.45,-3.89 -2.3,-2.49 -3.4,-5.4 -3.31,-8.73 l 0.07,-2.49 -1.92,-0.06 -1.15,42.04 1.92,0.05 0.07,-2.5" /><path
         id="path66"
         style="fill:#000000;fill-opacity:1;fill-rule:nonzero;stroke:none"
         d="m 2330.43,1071.82 c 3.05,20 11.82,35.37 26.33,46.12 14.5,10.76 32.11,14.63 52.82,11.61 20.71,-3.03 36.47,-11.76 47.3,-26.21 10.83,-14.45 14.73,-32.06 11.7,-52.84 -2.48,-16.97 -8.98,-31.35 -19.49,-43.14 l -27.35,0.11 0.25,1.71 c 11.3,1.2 20.52,5.61 27.65,13.24 7.12,7.62 11.54,17.26 13.24,28.92 2.42,16.59 -1.41,30.7 -11.49,42.32 -10.07,11.63 -24.61,18.82 -43.61,21.59 -19,2.78 -35.01,0.1 -48.03,-8.03 -13.02,-8.12 -20.89,-20.2 -23.62,-36.23 -2.07,-14.19 0.07,-26.59 6.41,-37.22 6.86,-11.48 19.57,-19.67 38.13,-24.58 l -0.22,-1.52 -29.5,6.64 c -17.19,14.27 -24.03,33.45 -20.52,57.51" /><path
         id="path68"
         style="fill:#000000;fill-opacity:1;fill-rule:nonzero;stroke:none"
         d="m 2304.64,909.641 c 1.82,-0.219 5.15,-1.161 10,-2.821 4.84,-1.66 9.67,-4.332 14.5,-8.019 l -0.56,-1.629 c -1.29,0.578 -2.6,1.09 -3.93,1.547 -7.39,2.531 -14.3,2.402 -20.74,-0.399 -6.44,-2.8 -10.93,-7.89 -13.46,-15.269 -2.62,-7.629 -2.47,-14.692 0.45,-21.172 2.92,-6.481 7.86,-10.91 14.83,-13.301 6.96,-2.387 13.43,-1.969 19.41,1.262 l 44.28,23.781 c 8.3,4.469 16.74,5.219 25.34,2.27 8.6,-2.942 14.97,-8.34 19.11,-16.192 4.14,-7.847 4.53,-16.679 1.17,-26.48 -1.58,-4.598 -3.97,-9.598 -7.18,-15 l -2.42,-7.078 -22.34,7.66 0.56,1.629 c 5.69,-1.95 10.9,-1.539 15.64,1.23 4.74,2.781 8.17,7.25 10.29,13.43 2.12,6.172 1.83,12.051 -0.85,17.64 -2.69,5.59 -7.11,9.442 -13.29,11.559 -6.17,2.121 -12.33,1.52 -18.47,-1.777 l -45.33,-24.453 c -7.64,-4.137 -16.31,-4.547 -26,-1.231 -9.68,3.32 -16.58,9.141 -20.7,17.453 -4.12,8.321 -4.41,17.617 -0.88,27.91 1.82,5.329 4.58,10.707 8.27,16.137 3.69,5.434 7.79,9.203 12.3,11.313" /><path
         id="path70"
         style="fill:#000000;fill-opacity:1;fill-rule:nonzero;stroke:none"
         d="m 2272.11,536.441 c -2.3,-8.703 -5.79,-16.113 -10.45,-22.211 -3.88,-5.089 -9.77,-8.89 -17.65,-11.402 -4.29,-1.398 -10.78,-1.668 -19.48,-0.828 -5.93,0.672 -15.68,3.199 -29.23,7.602 l -67.01,21.726 c -15.06,4.742 -27.76,7.563 -38.11,8.461 -10.35,0.902 -18.68,0.859 -24.98,-0.117 -6.31,-0.981 -11.69,-2.91 -16.14,-5.793 -4.46,-2.879 -7.68,-5.609 -9.66,-8.207 -1.98,-2.594 -3.55,-5.063 -4.69,-7.402 l -1.65,1.011 c 2.11,6.129 4.95,11.528 8.52,16.207 3.58,4.672 8.35,8.442 14.31,11.293 5.97,2.848 12.64,4.68 20.02,5.489 15.53,1.98 34.68,-0.891 57.45,-8.622 l 21.94,-7.339 31.94,41.8 -19.11,31.27 c -0.84,1.441 -1.86,2.633 -3.08,3.562 -1.22,0.938 -2.93,1.387 -5.12,1.368 -2.18,-0.008 -4.13,-1.137 -5.84,-3.379 l -0.94,-1.219 -1.52,1.168 23.43,30.66 1.53,-1.168 -1.05,-1.371 c -1.87,-2.441 -2.96,-5.391 -3.27,-8.859 -0.31,-3.469 0.42,-7.09 2.21,-10.871 l 61.7,-107.079 c 12.03,-0.492 21.15,3.329 27.37,11.469 2.8,3.66 5.03,8.16 6.69,13.488 z m -81.58,36.489 -29.49,-38.602 44.75,-15.109 c 8.61,-2.867 15.58,-4.809 20.92,-5.828 l -36.18,59.539" /><path
         id="path72"
         style="fill:#000000;fill-opacity:1;fill-rule:nonzero;stroke:none"
         d="m 2030.56,454.172 c 1.51,-1.043 4.02,-3.41 7.54,-7.133 3.52,-3.719 6.56,-8.328 9.13,-13.84 l -1.26,-1.179 c -0.87,1.109 -1.79,2.171 -2.76,3.199 -5.37,5.672 -11.55,8.761 -18.56,9.269 -7,0.512 -13.34,-1.918 -19.01,-7.289 -5.86,-5.539 -8.99,-11.859 -9.42,-18.961 -0.42,-7.09 1.9,-13.308 6.96,-18.66 5.06,-5.348 10.98,-7.976 17.78,-7.887 l 50.26,0.508 c 9.42,0.11 17.26,-3.14 23.5,-9.738 6.25,-6.602 9.39,-14.34 9.41,-23.211 0.03,-8.879 -3.72,-16.879 -11.25,-24.012 -3.53,-3.34 -7.97,-6.66 -13.31,-9.949 l -5.44,-5.148 -16.24,17.148 1.26,1.191 c 4.13,-4.371 8.94,-6.421 14.43,-6.171 5.48,0.261 10.6,2.632 15.34,7.121 4.74,4.48 7.22,9.832 7.44,16.019 0.21,6.199 -1.92,11.672 -6.41,16.41 -4.49,4.743 -10.22,7.071 -17.19,6.993 l -51.49,-0.622 c -8.7,-0.121 -16.57,3.54 -23.61,10.981 -7.03,7.43 -10.45,15.789 -10.24,25.059 0.21,9.281 4.27,17.66 12.17,25.14 4.09,3.871 9.03,7.352 14.82,10.449 5.79,3.102 11.17,4.539 16.15,4.313" /><path
         id="path74"
         style="fill:#000000;fill-opacity:1;fill-rule:nonzero;stroke:none"
         d="m 1895.34,338.301 c 1.32,-1.27 3.43,-4.02 6.31,-8.25 2.88,-4.231 5.15,-9.262 6.81,-15.11 l -1.43,-0.972 c -0.68,1.242 -1.42,2.441 -2.22,3.601 -4.39,6.45 -10.01,10.489 -16.84,12.102 -6.83,1.617 -13.48,0.226 -19.93,-4.172 -6.66,-4.539 -10.77,-10.281 -12.31,-17.211 -1.55,-6.937 -0.25,-13.449 3.9,-19.539 4.14,-6.078 9.57,-9.621 16.29,-10.609 l 49.71,-7.493 c 9.32,-1.398 16.53,-5.847 21.65,-13.359 5.12,-7.508 6.99,-15.648 5.6,-24.41 -1.38,-8.77 -6.36,-16.07 -14.93,-21.91 -4.02,-2.739 -8.93,-5.309 -14.72,-7.707 l -6.19,-4.223 -13.3,19.52 1.43,0.972 c 3.39,-4.972 7.81,-7.761 13.26,-8.383 5.46,-0.617 10.88,0.911 16.28,4.582 5.39,3.68 8.69,8.559 9.89,14.641 1.2,6.078 -0.04,11.82 -3.72,17.219 -3.67,5.39 -8.96,8.601 -15.86,9.64 l -50.93,7.571 c -8.61,1.269 -15.79,6.129 -21.56,14.59 -5.76,8.461 -7.81,17.25 -6.12,26.379 1.68,9.121 7.02,16.75 16.01,22.871 4.65,3.168 10.08,5.828 16.29,7.968 6.21,2.141 11.75,2.7 16.63,1.692" /><path
         id="path76"
         style="fill:#000000;fill-opacity:1;fill-rule:nonzero;stroke:none"
         d="m 1771.65,136.102 c -7.52,-17.223 -21.32,-30.122 -41.38,-38.7114 -20.06,-8.5898 -38.92,-9.6718 -56.57,-3.2422 -17.66,6.4416 -30.59,19.2426 -38.81,38.4216 -8.21,19.18 -8.55,37.379 -1.02,54.602 7.52,17.219 21.32,30.117 41.38,38.707 20.06,8.59 38.92,9.672 56.57,3.23 17.66,-6.429 30.59,-19.238 38.8,-38.418 8.22,-19.171 8.56,-37.371 1.03,-54.589 z m -47.82,85.097 c -14.58,6.571 -29.99,6.379 -46.23,-0.578 -16.23,-6.949 -27.01,-17.973 -32.31,-33.051 -5.31,-15.082 -4.19,-31.449 3.37,-49.101 7.56,-17.649 18.63,-29.758 33.21,-36.328 14.57,-6.5629 29.98,-6.3715 46.22,0.578 16.24,6.953 27.01,17.972 32.32,33.062 5.31,15.078 4.18,31.449 -3.38,49.098 -7.56,17.652 -18.62,29.75 -33.2,36.32" /><path
         id="path78"
         style="fill:#000000;fill-opacity:1;fill-rule:nonzero;stroke:none"
         d="m 1439.32,155.031 c 19.9,3.578 37.29,0.25 52.15,-10 14.87,-10.242 24.23,-25.652 28.06,-46.2302 3.84,-20.5703 0.68,-38.3125 -9.5,-53.2305 -10.17,-14.9219 -25.57,-24.3086 -46.21,-28.1601 -16.86,-3.1407 -32.57,-1.6485 -47.12,4.4882 l -8.74,25.9102 1.69,0.3203 c 4.79,-10.3086 11.95,-17.5976 21.47,-21.8789 9.52,-4.2812 20.07,-5.3398 31.65,-3.1797 16.48,3.0781 28.59,11.2695 36.33,24.5586 7.74,13.293 9.85,29.3828 6.33,48.25 -3.52,18.8711 -11.23,33.1601 -23.13,42.8511 -11.9,9.7 -25.88,13.239 -41.93,10.641 -14.09,-2.633 -25.14,-8.672 -33.14,-18.101 -8.65,-10.211 -12.29,-24.891 -10.93,-44.0317 l -1.51,-0.2891 -3.26,30.0628 c 7.95,20.879 23.88,33.558 47.79,38.019" /><path
         id="path80"
         style="fill:#000000;fill-opacity:1;fill-rule:nonzero;stroke:none"
         d="m 1275.38,133.148 c -3.33,-0.046 -6.16,-1.269 -8.5,-3.668 -2.33,-2.402 -3.54,-5.261 -3.63,-8.589 l 1.41,-106.5512 c 0.17,-3.3281 1.46,-6.12886 3.86,-8.39839 2.39,-2.26953 5.26,-3.39063 8.59,-3.33985 l 2.49,0.02735 0.03,-1.917972 -42.05,-0.550782 -0.02,1.917974 2.49,0.03125 c 3.33,0.03906 6.16,1.23046 8.5,3.57031 2.34,2.33203 3.55,5.16011 3.63,8.49221 l -1.41,106.5471 c -0.04,3.332 -1.29,6.16 -3.76,8.5 -2.46,2.34 -5.36,3.48 -8.68,3.441 l -2.5,-0.039 -0.03,1.918 42.05,0.563 0.02,-1.922 -2.49,-0.032" /><path
         id="path82"
         style="fill:#000000;fill-opacity:1;fill-rule:nonzero;stroke:none"
         d="m 1002.6,156.648 -1.52,0.243 0.3,1.898 42.68,-6.66 -0.3,-1.891 -1.7,0.262 c -2.66,0.422 -4.78,-0.129 -6.38,-1.629 -1.59,-1.5 -2.51,-3.012 -2.74,-4.519 -0.24,-1.524 -0.22,-3.082 0.04,-4.68 l 7.12,-34.141 51.22,-7.9802 17.77,30.4492 c 0.74,1.441 1.22,2.891 1.45,4.34 0.23,1.461 -0.19,3.14 -1.25,5.058 -1.06,1.911 -2.92,3.082 -5.58,3.493 l -1.7,0.269 0.29,1.891 38.13,-5.942 -0.29,-1.898 -1.71,0.269 c -3.16,0.489 -6.42,-0.039 -9.77,-1.589 -3.35,-1.551 -6.28,-4.141 -8.79,-7.762 L 1061.08,30.75 c -6.27,-9.5117 -9.63,-15.6602 -10.06,-18.4492 l -1.71,0.2695 -31.88,129.5317 c -1.16,4.199 -3.1,7.539 -5.82,10.039 -2.72,2.5 -5.72,4 -9.01,4.507 z m 85.56,-64.4371 -46.67,7.2774 13.27,-64.4492 z" /><path
         id="path84"
         style="fill:#000000;fill-opacity:1;fill-rule:nonzero;stroke:none"
         d="m 774.059,109.172 c -1.047,-2.891 -0.938,-5.762 0.339,-8.602 1.274,-2.8512 3.274,-4.8395 6,-5.9684 L 814.672,82.1211 854.031,190.18 c 1.02,3.172 0.809,6.242 -0.633,9.218 -1.429,2.973 -3.707,5.032 -6.839,6.172 l -2.348,0.852 0.66,1.808 39.508,-14.39 -0.66,-1.809 -2.34,0.86 c -3.129,1.14 -6.199,1.031 -9.207,-0.321 -3.024,-1.359 -5.133,-3.519 -6.352,-6.48 L 826.398,77.8398 860.68,65.3594 c 2.929,-0.9297 5.769,-0.6992 8.519,0.6797 2.75,1.3828 4.653,3.5117 5.699,6.4023 l 1.122,3.0703 1.871,-0.4804 -8.282,-22.7305 c -1.539,1.3789 -4.398,3.2383 -8.589,5.5781 -4.192,2.3399 -8.149,4.1914 -11.872,5.5508 l -60.976,22.2109 c -5.902,2.1485 -10.961,3.4805 -15.203,4 -4.239,0.5196 -6.84,0.7578 -7.809,0.6992 l 8.281,22.7302 1.731,-0.832 -1.113,-3.066" /><path
         id="path86"
         style="fill:#000000;fill-opacity:1;fill-rule:nonzero;stroke:none"
         d="m 718.852,264.16 c -2.903,1.629 -5.973,1.988 -9.192,1.078 -3.219,-0.91 -5.699,-2.777 -7.441,-5.629 l -52.098,-92.961 c -1.512,-2.957 -1.801,-6.027 -0.859,-9.187 0.937,-3.172 2.859,-5.57 5.758,-7.199 l 2.179,-1.223 -0.937,-1.668 -36.684,20.551 0.942,1.68 2.179,-1.223 c 2.903,-1.629 5.949,-2.02 9.141,-1.16 3.191,0.851 5.66,2.703 7.398,5.543 l 52.09,92.957 c 1.633,2.902 1.961,5.98 0.992,9.23 -0.961,3.262 -2.89,5.699 -5.8,7.321 l -2.168,1.218 0.929,1.684 36.688,-20.563 -0.938,-1.668 -2.179,1.219" /><path
         id="path88"
         style="fill:#000000;fill-opacity:1;fill-rule:nonzero;stroke:none"
         d="m 505.211,262.898 c -18.75,-1.179 -36.539,5.192 -53.352,19.102 -16.808,13.91 -26.398,30.191 -28.75,48.828 -2.347,18.641 3.129,36 16.43,52.082 13.301,16.07 29.332,24.699 48.082,25.879 18.75,1.18 36.539,-5.187 53.348,-19.098 16.812,-13.921 26.402,-30.203 28.75,-48.839 2.351,-18.641 -3.129,-36 -16.43,-52.071 -13.301,-16.082 -29.328,-24.703 -48.078,-25.883 z m 53.809,81.442 c -0.821,15.969 -8.04,29.59 -21.649,40.851 -13.609,11.258 -28.332,15.797 -44.172,13.618 -15.84,-2.168 -29.879,-10.661 -42.121,-25.45 -12.238,-14.789 -17.949,-30.168 -17.129,-46.14 0.832,-15.969 8.051,-29.578 21.66,-40.84 13.61,-11.27 28.332,-15.809 44.172,-13.629 15.84,2.18 29.879,10.66 42.117,25.449 12.243,14.801 17.954,30.18 17.122,46.141" /><path
         id="path90"
         style="fill:#000000;fill-opacity:1;fill-rule:nonzero;stroke:none"
         d="m 220.422,539.398 c 1.949,-2.539 4.519,-4.027 7.699,-4.488 3.18,-0.461 6.078,0.231 8.688,2.078 l 78.519,60.422 c 5.883,4.531 11.192,9.18 15.91,13.942 l 2.512,2.418 1.051,-1.372 -24.742,-151.078 75.781,58.309 c 2.531,1.949 3.988,4.531 4.359,7.723 0.371,3.187 -0.429,6.046 -2.379,8.589 l -2.218,2.887 1.519,1.172 24.117,-31.34 -1.519,-1.172 -2.231,2.891 c -1.949,2.531 -4.508,4.031 -7.687,4.492 -3.18,0.457 -6.09,-0.32 -8.731,-2.351 l -78.968,-60.77 c -6.192,-4.77 -11.454,-9.371 -15.774,-13.828 l -2.199,-2.184 -1.168,1.524 24.738,151.078 -75.469,-58.078 c -2.558,-2.133 -4.019,-4.793 -4.39,-7.981 -0.371,-3.203 0.422,-6.062 2.371,-8.601 l 2.219,-2.891 -1.52,-1.168 -24.121,31.348 1.52,1.172 2.113,-2.743" /></g></g></svg>