<?xml version="1.0" encoding="UTF-8" standalone="no"?>
<svg
   xmlns:dc="http://purl.org/dc/elements/1.1/"
   xmlns:cc="http://creativecommons.org/ns#"
   xmlns:rdf="http://www.w3.org/1999/02/22-rdf-syntax-ns#"
   xmlns:svg="http://www.w3.org/2000/svg"
   xmlns="http://www.w3.org/2000/svg"
   viewBox="0 0 332 332"
   height="332"
   width="332"
   xml:space="preserve"
   id="svg2"
   version="1.1"><metadata
     id="metadata8"><rdf:RDF><cc:Work
         rdf:about=""><dc:format>image/svg+xml</dc:format><dc:type
           rdf:resource="http://purl.org/dc/dcmitype/StillImage" /></cc:Work></rdf:RDF></metadata><defs
     id="defs6" /><g
     transform="matrix(1.3333333,0,0,-1.3333333,0,332)"
     id="g10"><g
       transform="scale(0.1)"
       id="g12"><path
         id="path14"
         style="fill:#1e2e00;fill-opacity:1;fill-rule:nonzero;stroke:none"
         d="m 455.75,784.051 -0.059,908.059 786.539,-454.03 0.02,-302.689 -524.359,302.689 0.039,-605.369 -262.18,151.34" /><path
         id="path16"
         style="fill:#bfccbd;fill-opacity:1;fill-rule:nonzero;stroke:none"
         d="m 1242.23,1238.08 786.47,454.03 0.07,-908.059 -262.16,-151.34 -0.05,605.369 -524.31,-302.689 -0.02,302.689" /><path
         id="path18"
         style="fill:#1e2e00;fill-opacity:1;fill-rule:nonzero;stroke:none"
         d="m 980.109,481.359 -0.019,302.692 262.18,-151.34 0.02,-302.691 -262.181,151.339" /><path
         id="path20"
         style="fill:#bfccbd;fill-opacity:1;fill-rule:nonzero;stroke:none"
         d="m 1242.27,632.711 262.16,151.34 0.02,-302.692 -262.16,-151.339 -0.02,302.691" /><path
         id="path22"
         style="fill:#bfccbd;fill-opacity:1;fill-rule:nonzero;stroke:none"
         d="m 1242.15,2286.68 c -579.091,-0.04 -1048.521,-469.5 -1048.521,-1048.6 0,-191.02 51.07,-370.1 140.312,-524.35 l 121.809,70.321 -0.059,908.059 786.469,454.04 -0.01,140.53" /><path
         id="path24"
         style="fill:#e5eadc;fill-opacity:1;fill-rule:evenodd;stroke:none"
         d="M 455.75,784.051 333.941,713.73 c 181.321,-313.402 520.18,-524.25 908.289,-524.25 388.12,0 726.99,210.86 908.3,524.282 L 2028.77,784.051 1242.29,330.02 455.75,784.051" /><path
         id="path26"
         style="fill:#1e2e00;fill-opacity:1;fill-rule:nonzero;stroke:none"
         d="m 2028.77,784.051 121.76,-70.289 c 89.23,154.238 140.3,333.318 140.3,524.318 0,579.13 -469.47,1048.6 -1048.68,1048.6 l 0.01,-140.53 786.54,-454.04 0.07,-908.059" /><path
         id="path28"
         style="fill:#e5eadc;fill-opacity:1;fill-rule:evenodd;stroke:none"
         d="m 1242.16,2146.15 -786.469,-454.04 786.539,-454.03 786.47,454.03 -786.54,454.04" />
</g></g></svg>